<?xml version="1.0" encoding="utf-8"?>
<!-- Generator: Adobe Illustrator 18.1.0, SVG Export Plug-In . SVG Version: 6.00 Build 0)  -->
<!DOCTYPE svg PUBLIC "-//W3C//DTD SVG 1.1//EN" "http://www.w3.org/Graphics/SVG/1.1/DTD/svg11.dtd">
<svg version="1.1" id="Layer_1" xmlns="http://www.w3.org/2000/svg" xmlns:xlink="http://www.w3.org/1999/xlink" x="0px" y="0px"
	 viewBox="0 0 123.22 17.42" enable-background="new 0 0 123.22 17.42" xml:space="preserve">
<g>
	<path d="M13.22,5.83c-0.45-1.7-1.53-5.21-4.55-5.21C7.32,0.62,5,1.74,4.27,4.27C3.96,5.35,3.82,6.91,3.82,8.85
		c0,1.08,0,2.01,0.14,2.99c0.14,1.04,0.35,1.91,0.73,2.64c0.35,0.73,1.04,1.46,1.77,1.8c0.66,0.31,1.35,0.49,2.39,0.49
		c1.08,0,2.05-0.17,2.71-0.45c0.66-0.28,1.29-0.66,1.77-1.25c0.52-0.59,0.76-1.01,1.01-1.53c0.21-0.45,0.24-0.66,0.35-0.97l0.62,0.1
		c-0.07,0.24-0.17,0.62-0.42,1.14c-0.24,0.52-0.59,1.08-1.08,1.63c-0.55,0.62-1.21,1.08-2.01,1.42c-0.66,0.28-1.74,0.56-2.99,0.56
		c-0.73,0-1.8-0.07-2.85-0.38c-1.21-0.35-2.33-0.97-3.16-1.67c-0.76-0.62-1.46-1.49-2.01-2.6C0.24,11.66,0,10.34,0,8.71
		c0-1.25,0.31-2.46,0.8-3.54c0.45-1.01,1.14-1.91,1.94-2.71c0.62-0.63,1.8-1.49,2.74-1.84C6.66,0.17,7.39,0,8.89,0
		c1.29,0,4.03,0.76,5.62,2.19l-0.83,3.54L13.22,5.83z"/>
	<path d="M43.46,12.67c-0.21,0.8-0.73,1.94-1.49,2.78c-1.11,1.28-2.92,1.98-5,1.98c-2.43,0-4.69-0.76-6.35-2.36
		c-1.7-1.63-2.46-3.78-2.46-6.28c0-2.29,0.9-4.41,2.5-6.08C32.25,1.04,34.36,0,36.72,0c1.63,0,3.19,0.55,4.58,1.63
		c1.49,1.28,2.46,3.26,2.46,5.8H32c-0.04,0.17-0.04,0.45-0.04,1.77c0,1.67,0.1,3.68,0.8,5.14c0.8,1.67,2.19,2.43,4.24,2.43
		c1.77,0,3.37-0.42,4.48-1.7c0.8-0.87,1.15-1.77,1.35-2.5L43.46,12.67z M39.95,4.93c0-1.39-0.28-2.64-0.94-3.47
		c-0.66-0.66-1.49-0.9-2.43-0.9c-1.46,0-2.74,0.56-3.47,1.91c-0.69,1.18-1.01,2.74-1.08,4.41h7.81c0.07-0.35,0.1-0.66,0.1-0.97V4.93
		z"/>
	<path d="M53.41,7.5c1.18,0.42,2.19,0.97,2.95,1.67c0.76,0.73,1.15,1.67,1.15,2.85c0,0.69-0.14,1.35-0.42,2.01
		c-0.28,0.66-0.66,1.25-1.18,1.74c-0.52,0.49-1.15,0.9-1.91,1.21c-0.73,0.31-1.56,0.45-2.5,0.45c-1.84,0-5.03-0.8-6.63-2.22
		l0.83-3.54l0.45-0.1c0.94,3.64,2.74,5.21,5.35,5.21c0.76,0,1.56-0.1,2.36-0.73c0.62-0.49,0.97-1.18,0.97-2.33
		c0-0.97-0.28-1.63-0.76-2.05c-0.48-0.38-1.07-0.69-1.73-0.94l-2.99-1.01c-0.38-0.14-0.8-0.28-1.21-0.49
		c-0.45-0.17-0.87-0.45-1.25-0.8c-0.38-0.35-0.7-0.8-0.94-1.32c-0.24-0.52-0.38-1.21-0.38-2.05c0-0.73,0.14-1.39,0.42-2.01
		c0.31-0.59,0.7-1.15,1.15-1.6c0.49-0.45,1.08-0.8,1.77-1.08C49.56,0.14,50.32,0,51.09,0c1.28,0,4.23,0.66,5.83,2.08l-0.83,3.54
		l-0.45,0.1c-0.45-1.7-1.53-5.21-4.55-5.21c-0.87,0-2.08,0.24-2.85,0.83c-0.7,0.52-1.01,1.28-1.01,2.22c0,0.8,0.28,1.42,0.83,1.84
		c0.59,0.42,1.42,0.8,2.57,1.18L53.41,7.5z"/>
	<path d="M74.05,12.67c-0.21,0.8-0.73,1.94-1.49,2.78c-1.11,1.28-2.91,1.98-5,1.98c-2.43,0-4.69-0.76-6.35-2.36
		c-1.7-1.63-2.46-3.78-2.46-6.28c0-2.29,0.9-4.41,2.5-6.08C62.84,1.04,64.96,0,67.32,0c1.63,0,3.19,0.55,4.58,1.63
		c1.49,1.28,2.46,3.26,2.46,5.8H62.6c-0.04,0.17-0.04,0.45-0.04,1.77c0,1.67,0.1,3.68,0.8,5.14c0.8,1.67,2.19,2.43,4.23,2.43
		c1.77,0,3.37-0.42,4.48-1.7c0.8-0.87,1.14-1.77,1.35-2.5L74.05,12.67z M70.54,4.93c0-1.39-0.28-2.64-0.94-3.47
		c-0.66-0.66-1.49-0.9-2.43-0.9c-1.46,0-2.74,0.56-3.47,1.91c-0.7,1.18-1.01,2.74-1.08,4.41h7.81c0.07-0.35,0.11-0.66,0.11-0.97
		V4.93z"/>
	<path d="M122.91,12.67c-0.21,0.8-0.73,1.94-1.49,2.78c-1.11,1.28-2.92,1.98-5,1.98c-2.43,0-4.69-0.76-6.35-2.36
		c-1.7-1.63-2.46-3.78-2.46-6.28c0-2.29,0.9-4.41,2.5-6.07c1.6-1.67,3.71-2.71,6.07-2.71c1.63,0,3.19,0.55,4.58,1.63
		c1.49,1.28,2.46,3.26,2.46,5.8h-11.77c-0.04,0.17-0.04,0.45-0.04,1.77c0,1.67,0.11,3.68,0.8,5.14c0.8,1.67,2.19,2.43,4.23,2.43
		c1.77,0,3.37-0.42,4.48-1.7c0.8-0.87,1.14-1.77,1.35-2.5L122.91,12.67z M119.4,4.93c0-1.39-0.28-2.64-0.94-3.47
		c-0.66-0.66-1.49-0.9-2.43-0.9c-1.46,0-2.74,0.56-3.47,1.91c-0.7,1.18-1.01,2.74-1.08,4.41h7.81c0.07-0.35,0.11-0.66,0.11-0.97
		V4.93z"/>
	<path d="M102.27,7.5c1.18,0.42,2.19,0.97,2.95,1.67c0.76,0.73,1.15,1.67,1.15,2.85c0,0.69-0.14,1.35-0.42,2.01
		c-0.28,0.66-0.66,1.25-1.18,1.74c-0.52,0.49-1.14,0.9-1.91,1.21c-0.73,0.31-1.56,0.45-2.5,0.45c-1.84,0-5.03-0.8-6.63-2.22
		l0.83-3.54l0.45-0.1c0.94,3.64,2.74,5.21,5.34,5.21c0.76,0,1.56-0.1,2.36-0.73c0.62-0.49,0.97-1.18,0.97-2.33
		c0-0.97-0.28-1.63-0.76-2.05c-0.49-0.38-1.07-0.69-1.73-0.94l-2.99-1.01c-0.38-0.14-0.8-0.28-1.21-0.49
		c-0.45-0.17-0.87-0.45-1.25-0.8c-0.38-0.35-0.69-0.8-0.94-1.32c-0.24-0.52-0.38-1.21-0.38-2.05c0-0.73,0.14-1.39,0.42-2.01
		c0.31-0.59,0.7-1.15,1.15-1.6c0.49-0.45,1.08-0.8,1.77-1.08C98.42,0.14,99.18,0,99.95,0c1.29,0,4.23,0.66,5.83,2.08l-0.83,3.54
		l-0.45,0.1c-0.45-1.7-1.53-5.21-4.55-5.21c-0.87,0-2.08,0.24-2.85,0.83c-0.69,0.52-1.01,1.28-1.01,2.22c0,0.8,0.28,1.42,0.83,1.84
		c0.59,0.42,1.42,0.8,2.57,1.18L102.27,7.5z"/>
	<path d="M20.22,4.58c0.52-1.91,2.12-4.27,4.96-4.27c0.56,0,1.21,0.03,1.91,0.45c0.45,0.24,0.94,0.59,1.28,0.9l-0.83,3.54l-0.45,0.1
		c-0.17-0.62-0.45-1.56-0.83-2.4c-0.52-1.18-1.42-1.84-2.08-1.84c-1.7,0-3.78,2.64-3.96,6.25v9.79h-3.3V0.73h3.23v3.85H20.22z"/>
	<path d="M76.29,17.11V0.73h3.19v4.1h0.07l0.66-1.28c0.31-0.49,0.69-0.97,1.21-1.46c0.52-0.49,1.15-0.9,1.91-1.25
		c0.77-0.35,1.7-0.52,2.78-0.52c1.7,0,3.05,0.42,4.13,1.21c1.04,0.83,1.56,2.12,1.56,3.89v11.7h-3.26V4.24
		c0-0.97-0.24-1.81-0.73-2.43c-0.45-0.62-1.18-0.97-2.19-0.97c-0.8,0-1.6,0.21-2.32,0.55c-0.73,0.35-1.39,0.83-1.95,1.49
		c-0.55,0.62-1.01,1.39-1.32,2.26c-0.31,0.87-0.49,1.8-0.49,2.81v9.16H76.29z"/>
</g>
</svg>
