<?xml version="1.0" encoding="UTF-8" standalone="no"?>
<svg width="50px" height="50px" viewBox="0 0 50 50" version="1.1" xmlns="http://www.w3.org/2000/svg" xmlns:xlink="http://www.w3.org/1999/xlink" xmlns:sketch="http://www.bohemiancoding.com/sketch/ns">
    <!-- Generator: Sketch 3.2.2 (9983) - http://www.bohemiancoding.com/sketch -->
    <title>linkedin</title>
    <desc>Created with Sketch.</desc>
    <defs></defs>
    <g id="Welcome" stroke="none" stroke-width="1" fill="none" fill-rule="evenodd" sketch:type="MSPage">
        <g id="Mobile-Portrait" sketch:type="MSArtboardGroup" transform="translate(-135.000000, -406.000000)" fill="#000000">
            <path d="M160,456 C173.807119,456 185,444.807119 185,431 C185,417.192881 173.807119,406 160,406 C146.192881,406 135,417.192881 135,431 C135,444.807119 146.192881,456 160,456 Z M160,453 C172.150265,453 182,443.150265 182,431 C182,418.849735 172.150265,409 160,409 C147.849735,409 138,418.849735 138,431 C138,443.150265 147.849735,453 160,453 Z M149,426.118048 L149,440.658183 L153.710085,440.658183 L153.710085,426.118048 L149,426.118048 Z M151.664696,419 C150.053406,419 149,420.085861 149,421.511512 C149,422.907633 150.022271,424.024761 151.603556,424.024761 L151.633656,424.024761 C153.275987,424.024761 154.298822,422.907633 154.298822,421.511512 C154.268252,420.085861 153.275987,419 151.664696,419 Z M165.576921,426.118048 C163.076176,426.118048 161.95655,427.52932 161.331411,428.519353 L161.331411,426.459864 L156.620761,426.459864 C156.682843,427.824236 156.620761,441 156.620761,441 L161.331411,441 L161.331411,432.879589 C161.331411,432.445032 161.361981,432.011537 161.48652,431.700408 C161.826932,430.83226 162.602007,429.933423 163.903267,429.933423 C165.608338,429.933423 166.289915,431.26672 166.289915,433.220633 L166.289915,440.999614 L170.999812,440.999614 L171,432.662745 C171,428.196644 168.676374,426.118048 165.576921,426.118048 Z" id="linkedin" sketch:type="MSShapeGroup"></path>
        </g>
    </g>
</svg>