<?xml version="1.0" encoding="UTF-8" standalone="no"?>
<svg width="50px" height="50px" viewBox="0 0 50 50" version="1.1" xmlns="http://www.w3.org/2000/svg" xmlns:xlink="http://www.w3.org/1999/xlink" xmlns:sketch="http://www.bohemiancoding.com/sketch/ns">
    <!-- Generator: Sketch 3.2.2 (9983) - http://www.bohemiancoding.com/sketch -->
    <title>twitter</title>
    <desc>Created with Sketch.</desc>
    <defs></defs>
    <g id="Welcome" stroke="none" stroke-width="1" fill="none" fill-rule="evenodd" sketch:type="MSPage">
        <g id="Mobile-Portrait" sketch:type="MSArtboardGroup" transform="translate(-135.000000, -326.000000)" fill="#000000">
            <path d="M160,376 C173.807119,376 185,364.807119 185,351 C185,337.192881 173.807119,326 160,326 C146.192881,326 135,337.192881 135,351 C135,364.807119 146.192881,376 160,376 Z M160,373 C172.150265,373 182,363.150265 182,351 C182,338.849735 172.150265,329 160,329 C147.849735,329 138,338.849735 138,351 C138,363.150265 147.849735,373 160,373 Z M159.682255,346.554297 L159.729944,347.376101 L158.935133,347.275472 C156.042023,346.889728 153.514525,345.58155 151.368536,343.384484 L150.319386,342.294336 L150.04915,343.099368 C149.476886,344.893919 149.842499,346.789099 151.034715,348.063733 C151.670564,348.768136 151.527498,348.868765 150.430659,348.449477 C150.04915,348.315305 149.71533,348.214676 149.683537,348.264991 C149.572264,348.382391 149.953773,349.908598 150.255801,350.512372 C150.669102,351.350947 151.511602,352.172751 152.433582,352.659124 L153.212496,353.044869 L152.290516,353.06164 C151.400328,353.06164 151.368536,353.078412 151.463913,353.430613 C151.781837,354.520761 153.037638,355.677994 154.436505,356.181139 L155.42207,356.533341 L154.563675,357.070029 C153.291978,357.841518 151.797734,358.277577 150.303489,358.31112 C149.58816,358.327892 149,358.394978 149,358.445292 C149,358.613007 150.939338,359.552211 152.067969,359.921184 C155.453863,361.011332 159.475605,360.54173 162.495885,358.680093 C164.641874,357.355145 166.787863,354.722019 167.789324,352.172751 C168.329795,350.814259 168.870267,348.332077 168.870267,347.1413 C168.870267,346.369811 168.917955,346.269182 169.808143,345.346749 C170.332718,344.810061 170.825501,344.223059 170.920878,344.055344 C171.07984,343.736685 171.063944,343.736685 170.253237,344.021801 C168.902059,344.524946 168.711305,344.45786 169.378946,343.703142 C169.871728,343.166454 170.459888,342.193707 170.459888,341.908591 C170.459888,341.858277 170.221445,341.942135 169.951209,342.093078 C169.665077,342.260793 169.029229,342.512366 168.552342,342.663309 L167.693947,342.948425 L166.915032,342.394965 C166.485835,342.093078 165.881779,341.757648 165.563854,341.657019 C164.753147,341.422218 163.513243,341.455761 162.782017,341.724105 C160.79499,342.478823 159.539189,344.424317 159.682255,346.554297 C159.682255,346.554297 159.539189,344.424317 159.682255,346.554297 Z" id="twitter" sketch:type="MSShapeGroup"></path>
        </g>
    </g>
</svg>