<svg xmlns="http://www.w3.org/2000/svg" viewBox="0 0 123.22 17.42" enable-background="new 0 0 123.22 17.42"><path d="M13.22 5.83C12.77 4.13 11.69.62 8.67.62 7.32.62 5 1.74 4.27 4.27c-.31 1.08-.45 2.64-.45 4.58 0 1.08 0 2.01.14 2.99.14 1.04.35 1.91.73 2.64.35.73 1.04 1.46 1.77 1.8.66.31 1.35.49 2.39.49 1.08 0 2.05-.17 2.71-.45.66-.28 1.29-.66 1.77-1.25.52-.59.76-1.01 1.01-1.53.21-.45.24-.66.35-.97l.62.1c-.07.24-.17.62-.42 1.14-.24.52-.59 1.08-1.08 1.63-.55.62-1.21 1.08-2.01 1.42-.66.28-1.74.56-2.99.56-.73 0-1.8-.07-2.85-.38-1.21-.35-2.33-.97-3.16-1.67-.76-.62-1.46-1.49-2.01-2.6C.24 11.66 0 10.34 0 8.71c0-1.25.31-2.46.8-3.54.45-1.01 1.14-1.91 1.94-2.71.62-.63 1.8-1.49 2.74-1.84C6.66.17 7.39 0 8.89 0c1.29 0 4.03.76 5.62 2.19l-.83 3.54-.46.1zM43.46 12.67c-.21.8-.73 1.94-1.49 2.78-1.11 1.28-2.92 1.98-5 1.98-2.43 0-4.69-.76-6.35-2.36-1.7-1.63-2.46-3.78-2.46-6.28 0-2.29.9-4.41 2.5-6.08C32.25 1.04 34.36 0 36.72 0c1.63 0 3.19.55 4.58 1.63 1.49 1.28 2.46 3.26 2.46 5.8H32c-.04.17-.04.45-.04 1.77 0 1.67.1 3.68.8 5.14.8 1.67 2.19 2.43 4.24 2.43 1.77 0 3.37-.42 4.48-1.7.8-.87 1.15-1.77 1.35-2.5l.63.1zm-3.51-7.74c0-1.39-.28-2.64-.94-3.47-.66-.66-1.49-.9-2.43-.9-1.46 0-2.74.56-3.47 1.91-.69 1.18-1.01 2.74-1.08 4.41h7.81c.07-.35.1-.66.1-.97v-.98zM53.41 7.5c1.18.42 2.19.97 2.95 1.67.76.73 1.15 1.67 1.15 2.85 0 .69-.14 1.35-.42 2.01-.28.66-.66 1.25-1.18 1.74-.52.49-1.15.9-1.91 1.21-.73.31-1.56.45-2.5.45-1.84 0-5.03-.8-6.63-2.22l.83-3.54.45-.1c.94 3.64 2.74 5.21 5.35 5.21.76 0 1.56-.1 2.36-.73.62-.49.97-1.18.97-2.33 0-.97-.28-1.63-.76-2.05-.48-.38-1.07-.69-1.73-.94l-2.99-1.01c-.38-.14-.8-.28-1.21-.49-.45-.17-.87-.45-1.25-.8-.38-.35-.7-.8-.94-1.32s-.38-1.21-.38-2.05c0-.73.14-1.39.42-2.01.31-.59.7-1.15 1.15-1.6.49-.45 1.08-.8 1.77-1.08.65-.23 1.41-.37 2.18-.37 1.28 0 4.23.66 5.83 2.08l-.83 3.54-.45.1c-.45-1.7-1.53-5.21-4.55-5.21-.87 0-2.08.24-2.85.83-.7.52-1.01 1.28-1.01 2.22 0 .8.28 1.42.83 1.84.59.42 1.42.8 2.57 1.18l2.78.92zM74.05 12.67c-.21.8-.73 1.94-1.49 2.78-1.11 1.28-2.91 1.98-5 1.98-2.43 0-4.69-.76-6.35-2.36-1.7-1.63-2.46-3.78-2.46-6.28 0-2.29.9-4.41 2.5-6.08C62.84 1.04 64.96 0 67.32 0c1.63 0 3.19.55 4.58 1.63 1.49 1.28 2.46 3.26 2.46 5.8H62.6c-.04.17-.04.45-.04 1.77 0 1.67.1 3.68.8 5.14.8 1.67 2.19 2.43 4.23 2.43 1.77 0 3.37-.42 4.48-1.7.8-.87 1.14-1.77 1.35-2.5l.63.1zm-3.51-7.74c0-1.39-.28-2.64-.94-3.47-.66-.66-1.49-.9-2.43-.9-1.46 0-2.74.56-3.47 1.91-.7 1.18-1.01 2.74-1.08 4.41h7.81c.07-.35.11-.66.11-.97v-.98zM122.91 12.67c-.21.8-.73 1.94-1.49 2.78-1.11 1.28-2.92 1.98-5 1.98-2.43 0-4.69-.76-6.35-2.36-1.7-1.63-2.46-3.78-2.46-6.28 0-2.29.9-4.41 2.5-6.07 1.6-1.67 3.71-2.71 6.07-2.71 1.63 0 3.19.55 4.58 1.63 1.49 1.28 2.46 3.26 2.46 5.8h-11.77c-.04.17-.04.45-.04 1.77 0 1.67.11 3.68.8 5.14.8 1.67 2.19 2.43 4.23 2.43 1.77 0 3.37-.42 4.48-1.7.8-.87 1.14-1.77 1.35-2.5l.64.09zm-3.51-7.74c0-1.39-.28-2.64-.94-3.47-.66-.66-1.49-.9-2.43-.9-1.46 0-2.74.56-3.47 1.91-.7 1.18-1.01 2.74-1.08 4.41h7.81c.07-.35.11-.66.11-.97v-.98zM102.27 7.5c1.18.42 2.19.97 2.95 1.67.76.73 1.15 1.67 1.15 2.85 0 .69-.14 1.35-.42 2.01-.28.66-.66 1.25-1.18 1.74-.52.49-1.14.9-1.91 1.21-.73.31-1.56.45-2.5.45-1.84 0-5.03-.8-6.63-2.22l.83-3.54.45-.1c.94 3.64 2.74 5.21 5.34 5.21.76 0 1.56-.1 2.36-.73.62-.49.97-1.18.97-2.33 0-.97-.28-1.63-.76-2.05-.49-.38-1.07-.69-1.73-.94L98.2 9.72c-.38-.14-.8-.28-1.21-.49-.45-.17-.87-.45-1.25-.8-.38-.35-.69-.8-.94-1.32-.24-.52-.38-1.21-.38-2.05 0-.73.14-1.39.42-2.01.31-.59.7-1.15 1.15-1.6.49-.45 1.08-.8 1.77-1.08.66-.23 1.42-.37 2.19-.37 1.29 0 4.23.66 5.83 2.08l-.83 3.54-.45.1c-.45-1.7-1.53-5.21-4.55-5.21-.87 0-2.08.24-2.85.83-.69.52-1.01 1.28-1.01 2.22 0 .8.28 1.42.83 1.84.59.42 1.42.8 2.57 1.18l2.78.92zM20.22 4.58c.52-1.91 2.12-4.27 4.96-4.27.56 0 1.21.03 1.91.45.45.24.94.59 1.28.9l-.83 3.54-.45.1c-.17-.62-.45-1.56-.83-2.4-.52-1.18-1.42-1.84-2.08-1.84-1.7 0-3.78 2.64-3.96 6.25v9.79h-3.3V.73h3.23v3.85h.07zM76.29 17.11V.73h3.19v4.1h.07l.66-1.28c.31-.49.69-.97 1.21-1.46s1.15-.9 1.91-1.25c.77-.35 1.7-.52 2.78-.52 1.7 0 3.05.42 4.13 1.21 1.04.83 1.56 2.12 1.56 3.89v11.7h-3.26V4.24c0-.97-.24-1.81-.73-2.43-.45-.62-1.18-.97-2.19-.97-.8 0-1.6.21-2.32.55-.73.35-1.39.83-1.95 1.49-.55.62-1.01 1.39-1.32 2.26-.31.87-.49 1.8-.49 2.81v9.16h-3.25z"/></svg>